# xmcd
#
# Track frame offsets:
#	150
#	14543
#	28390
#	41759
#	59629
#	75907
#	98128
#	117427
#
# Disc length: 1766 seconds
#
# Revision: 0
# Processed by: cddbd v1.5.2PL0 Copyright (c) Steve Scherf et al.
# Submitted via: dBpowerAMP V4.0
#
DISCID=6706e408
DTITLE=Tiffany - Rose tattoo
DYEAR=2011
DGENRE=Country
TTITLE0=Feel the music
TTITLE1=Crazy girls (Duet with Lindsay Lawler)
TTITLE2=He's all man
TTITLE3=He won't miss me
TTITLE4=All over you
TTITLE5=Just love me
TTITLE6=Love you good
TTITLE7=Just that girl
EXTD=
EXTT0=
EXTT1=
EXTT2=
EXTT3=
EXTT4=
EXTT5=
EXTT6=
EXTT7=
PLAYORDER=
